<svg width="0" height="0" class="hidden">
  <symbol fill="none" xmlns="http://www.w3.org/2000/svg" viewBox="0 0 16 13" id="Group">
    <path d="M6.50382 6.575C7.25355 6.575 7.97258 6.27738 8.50273 5.7476C9.03288 5.21781 9.33073 4.49925 9.33073 3.75C9.33073 3.00075 9.03288 2.28219 8.50273 1.75241C7.97258 1.22262 7.25355 0.925 6.50382 0.925C5.75409 0.925 5.03506 1.22262 4.50491 1.75241C3.97476 2.28219 3.67691 3.00075 3.67691 3.75C3.67691 4.49925 3.97476 5.21781 4.50491 5.7476C5.03506 6.27738 5.75409 6.575 6.50382 6.575ZM8.26343 3.75C8.26343 4.21632 8.07805 4.66356 7.74807 4.99331C7.41808 5.32307 6.97051 5.50833 6.50382 5.50833C6.03713 5.50833 5.58956 5.32307 5.25957 4.99331C4.92959 4.66356 4.74421 4.21632 4.74421 3.75C4.74421 3.28368 4.92959 2.83644 5.25957 2.50669C5.58956 2.17693 6.03713 1.99167 6.50382 1.99167C6.97051 1.99167 7.41808 2.17693 7.74807 2.50669C8.07805 2.83644 8.26343 3.28368 8.26343 3.75ZM11.0903 12L11.0904 12.075H11.0905L11.0908 12.075L11.0916 12.075L11.0942 12.075L11.1031 12.0747C11.1107 12.0745 11.1215 12.074 11.1351 12.073C11.1622 12.0711 11.2004 12.0673 11.246 12.0597C11.3369 12.0445 11.4592 12.0141 11.5825 11.9525C11.7061 11.8908 11.8319 11.797 11.9267 11.6549C12.0218 11.5123 12.0826 11.3256 12.0826 11.0833C12.0826 10.6057 11.8458 9.66979 11.0287 8.8532C10.2093 8.03442 8.81288 7.34167 6.50382 7.34167C4.19476 7.34167 2.7983 8.03442 1.97895 8.8532C1.1618 9.66979 0.925 10.6057 0.925 11.0833C0.925 11.3256 0.985834 11.5123 1.08094 11.6549C1.17573 11.797 1.30157 11.8908 1.42513 11.9525C1.54839 12.0141 1.67075 12.0445 1.76165 12.0597C1.80728 12.0673 1.84547 12.0711 1.87255 12.073C1.8861 12.074 1.8969 12.0745 1.9045 12.0747L1.91346 12.075L1.91604 12.075L1.91684 12.075L1.91711 12.075H1.91722L1.9173 12V12.075H11.0903V12ZM10.2741 9.60738C10.8206 10.1535 10.983 10.7418 11.0107 11.0047H1.99712C2.02538 10.7415 2.18723 10.1533 2.73351 9.60738C3.31492 9.02639 4.41904 8.40833 6.50382 8.40833C8.58768 8.40833 9.69273 9.02639 10.2741 9.60738Z" fill="#C0BEFF" stroke="#C0BEFF" stroke-width="0.15"></path>
    <path d="M14.8405 3.83085L12.4664 6.20419L11.4682 5.20581L11.4681 5.20578C11.3679 5.10566 11.2321 5.04942 11.0904 5.04942C10.9487 5.04942 10.8128 5.10566 10.7127 5.20578C10.6125 5.30591 10.5562 5.44172 10.5562 5.58334C10.5562 5.72496 10.6125 5.86076 10.7127 5.96089L12.0885 7.33582C12.0885 7.33583 12.0886 7.33583 12.0886 7.33584C12.1381 7.3855 12.197 7.42489 12.2618 7.45177C12.3267 7.47865 12.3962 7.49249 12.4663 7.49249C12.5365 7.49249 12.606 7.47865 12.6709 7.45177C12.7357 7.42489 12.7946 7.3855 12.8441 7.33584L12.8441 7.33589L12.7911 7.28284L12.8442 7.33582L14.8405 3.83085Z" fill="#C0BEFF" stroke="#C0BEFF" stroke-width="0.15"></path>
  </symbol>
</svg>